<mxfile host="app.diagrams.net" modified="2023-09-22T05:37:18.951Z" agent="Mozilla/5.0 (Windows NT 10.0; Win64; x64) AppleWebKit/537.36 (KHTML, like Gecko) Chrome/116.0.0.0 Safari/537.36" version="21.7.1" etag="PQyW9FQw4F6227fqnqLH" type="github">
  <diagram name="Page-1" id="k8T1qvBpEgV9LEcAZejO">
    <mxGraphModel>
      <root>
        <mxCell id="0" />
        <mxCell id="1" parent="0" />
      </root>
    </mxGraphModel>
  </diagram>
</mxfile>
